<svg width="400" height="400" viewBox="0 0 400 400" fill="none" xmlns="http://www.w3.org/2000/svg">
<circle cx="200" cy="200" r="200" fill="white"/>
<path d="M306.381 52.2347C301.363 48.0547 298.759 40.98 294.353 34C294.007 51.5 285.025 61.4173 268.771 65.68C285.167 66.82 295.978 74.2053 300.781 90.6307C301.965 73.8787 311.162 64.8387 325.966 60.7533C318.954 57.8733 311.478 56.4827 306.381 52.2347Z" fill="#A3DFE5"/>
<path d="M182.131 102.707C171.588 101.505 165.643 95.4747 162.285 85.7974C161.256 96.3974 155.929 102.88 146.208 106.721C156.785 107.529 162.176 114.117 166.153 122.913C167.331 112.473 173.237 106.719 182.131 102.707Z" fill="#A3DFE5"/>
<path d="M225.981 69.8851C221.408 66.2131 215.881 61.7704 211.542 58.2878C207.51 62.9798 202.861 68.3891 199.386 72.4238C204.004 76.0678 209.454 80.3664 213.797 83.7878C217.734 79.2944 222.305 74.0798 225.981 69.8851Z" fill="#A3DFE5"/>
<path d="M193.741 120.609C183.988 120.48 176.041 128.166 175.873 137.898C175.701 147.72 183.284 155.653 193.037 155.852C202.997 156.053 211.144 148.23 211.243 138.366C211.34 128.76 203.435 120.737 193.741 120.609ZM271.545 358.306C279.217 363.988 288.196 365.218 297.135 366.713C299.915 367.178 301.26 366.17 302.469 363.886C309.547 350.513 309.031 337.15 302.519 323.805C302 322.742 300.723 321.476 299.668 321.342C293.539 320.562 287.376 319.738 281.217 319.689C278.571 319.668 275.912 321.481 272.844 322.614C285.4 335.848 284.789 347.081 271.545 358.306V358.306ZM193.289 297.77C228.136 297.77 262.985 297.772 297.832 297.765C300.103 297.765 302.395 297.892 304.636 297.613C308.908 297.09 311.903 293.789 312.099 289.728C312.301 285.534 309.359 281.82 305.047 280.962C303.875 280.728 302.643 280.728 301.437 280.726C231.745 280.705 162.049 280.689 92.3573 280.68C89.3267 280.68 86.2867 280.584 83.2693 280.788C78.288 281.124 74.9933 284.617 75 289.29C75.0053 294.009 78.3067 297.393 83.2933 297.736C84.5 297.818 85.716 297.765 86.928 297.765C122.381 297.765 157.836 297.765 193.289 297.77V297.77ZM215.164 331.496C215.169 331.97 215.173 332.444 215.177 332.918C203.6 332.918 192.023 332.942 180.445 332.893C178.945 332.886 177.421 332.633 175.952 332.3C170.493 331.06 166.068 328.582 164.463 322.658C164.231 321.801 163.385 320.888 162.581 320.442C155.992 316.796 149.38 313.186 142.703 309.705C137.913 307.205 132.668 305.061 127.568 307.757C125.029 309.098 122.712 312.33 121.936 315.156C121.007 318.544 123.261 321.94 126.668 323.084C141.527 328.068 154.107 337.16 167.261 345.189C181.32 353.772 195.745 359.762 212.891 359.05C230.897 358.302 248.939 358.758 266.677 354.886C274.237 353.236 277.681 348.824 277.776 341.092C277.863 334.212 274.84 328.592 269.72 324.486C263.364 319.389 256.856 314.213 249.684 310.465C239.588 305.188 228.7 304.717 218.145 309.796C208.864 314.261 199.504 315.338 189.481 312.501C185.201 311.289 180.532 311.016 176.047 311.066C170.632 311.126 167.603 314.101 166.988 318.813C166.361 323.61 168.765 327.878 173.925 329.045C178.559 330.09 183.476 330.19 188.267 330.202C197.264 330.221 206.335 328.464 215.164 331.496V331.496ZM295.775 271.753C297.057 239.97 280.479 195.424 238.953 173.481C203.436 154.713 161.383 159.117 130.191 185.602C103.74 208.057 91.5773 237.296 90.796 271.773H109.213C108.227 244.777 115.617 220.666 133.253 200.242C151.02 179.664 173.657 168.853 200.887 167.736C178.537 174.674 160.527 187.513 147.444 206.966C134.307 226.5 128.949 248.066 130.725 271.753H295.775Z" fill="#FBB03B"/>
<path fill-rule="evenodd" clip-rule="evenodd" d="M238.954 173.258C236.388 171.902 233.786 170.794 231.158 169.679L235.446 160.828C238.455 161.79 241.124 161.808 241.418 158.923L241.04 157.876C241.04 157.876 240.762 157.104 239.132 155.95C241.756 156.612 243.931 156.339 244.194 153.75L243.816 152.695C243.816 152.695 243.48 151.738 241.335 150.375L242.283 148.192L250.084 149.622C278.176 154.271 277.695 129.694 277.695 129.694C277.731 116.007 281.775 112.603 281.775 112.603C280.684 115.446 285.304 120.744 285.304 120.744C284.756 112.314 290.991 100.487 290.991 100.487C274.499 108.112 273.207 125.751 273.207 125.752C272.898 129.95 272.374 135.208 269.155 138.316C265.374 141.975 258.84 142.523 253.976 141.346C253.515 141.232 246.739 138.866 247.052 138.155C247.095 138.052 266.294 94.1362 266.294 94.1362C266.26 96.6029 272.078 100.14 272.078 100.14C270.136 97.0456 269.86 77.3722 269.86 77.3722C265.288 83.8389 250.204 91.8736 250.204 91.8736L258.143 91.9242L238.471 134.335C231.551 131.567 224.47 125.715 225.531 117.562C226.476 110.318 232.234 105.631 235.928 99.8309C242.812 89.0376 237.503 76.6976 237.503 76.6976C234.548 88.4776 227.627 93.2562 227.627 93.2562C229.247 95.8336 235.811 93.0042 235.811 93.0042C235.067 96.6349 227.656 102.007 227.656 102.007C222.628 106.826 217.307 111.819 217.131 119.256C216.974 125.99 220.607 132.416 225.006 137.299C225.458 137.802 234.055 145.355 234.299 144.867C234.296 144.87 233.507 146.456 233.247 146.986C232.26 146.69 231.215 146.394 230.043 146.102C230.043 146.102 226.08 147.584 229.16 151.115C229.16 151.115 230.008 151.678 231.3 152.431C230.103 152.054 228.767 151.675 227.263 151.299C227.263 151.299 223.304 152.779 226.382 156.31C226.382 156.31 227.038 156.744 228.072 157.364L223.48 166.902C191.712 156.424 156.955 162.644 130.191 185.37C103.74 207.826 91.5776 236.64 90.7963 271.307H109.214C108.227 244.64 115.618 220.434 133.254 200.01C151.02 179.43 173.658 168.738 200.887 167.619C178.536 174.558 160.527 187.232 147.444 206.686C134.307 226.219 128.95 247.307 130.726 271.307H295.775C297.058 240.64 280.479 195.2 238.954 173.258Z" fill="#FBB03B"/>
<path fill-rule="evenodd" clip-rule="evenodd" d="M215.164 331.495C206.335 328.464 197.263 330.222 188.266 330.202C183.475 330.19 178.559 330.09 173.924 329.044C168.764 327.878 166.36 323.611 166.987 318.812C167.603 314.1 170.632 311.127 176.046 311.067C180.531 311.016 185.2 311.29 189.48 312.502C199.504 315.339 208.863 314.26 218.144 309.796C228.699 304.716 239.587 305.188 249.684 310.466C256.856 314.212 263.363 319.39 269.72 324.486C274.84 328.591 277.862 334.211 277.776 341.091C277.682 348.823 274.238 353.236 266.678 354.887C248.939 358.758 230.898 358.302 212.891 359.05C195.746 359.762 181.319 353.771 167.26 345.19C154.107 337.159 141.526 328.068 126.668 323.083C123.26 321.939 121.007 318.543 121.935 315.155C122.711 312.33 125.028 309.098 127.568 307.756C132.668 305.062 137.914 307.204 142.702 309.704C149.379 313.187 155.991 316.796 162.58 320.443C163.386 320.888 164.231 321.8 164.463 322.658C166.068 328.582 170.494 331.06 175.952 332.3C177.42 332.634 178.946 332.886 180.446 332.894C192.023 332.942 203.599 332.918 215.178 332.918C215.174 332.444 215.17 331.97 215.164 331.495Z" fill="#A3DFE5"/>
<path fill-rule="evenodd" clip-rule="evenodd" d="M193.29 297.767C157.836 297.765 122.382 297.765 86.9283 297.765C85.7163 297.765 84.5003 297.818 83.2936 297.737C78.3069 297.394 75.0056 294.01 75.0003 289.291C74.9936 284.618 78.2883 281.125 83.2683 280.789C86.2869 280.583 89.3269 280.681 92.3576 280.681C162.05 280.689 231.746 280.705 301.438 280.727C302.643 280.729 303.874 280.729 305.046 280.962C309.359 281.819 312.302 285.534 312.098 289.729C311.903 293.79 308.908 297.09 304.636 297.614C302.395 297.893 300.102 297.765 297.832 297.765C262.984 297.771 228.136 297.77 193.29 297.767Z" fill="#FBB03B"/>
<path fill-rule="evenodd" clip-rule="evenodd" d="M288.541 356.947C286.814 358.415 285.794 359.283 284.774 360.148C286.498 361.262 288.11 362.746 289.997 363.318C290.847 363.578 292.249 362.02 293.402 361.286C291.898 359.943 290.394 358.602 288.541 356.947ZM271.545 358.307C284.79 347.082 285.401 335.848 272.845 322.615C275.911 321.48 278.57 319.668 281.218 319.69C287.375 319.739 293.538 320.563 299.669 321.343C300.723 321.475 302.001 322.743 302.518 323.806C309.03 337.15 309.546 350.514 302.469 363.886C301.259 366.171 299.914 367.179 297.134 366.712C288.195 365.218 279.218 363.987 271.545 358.307Z" fill="#A3DFE5"/>
<path fill-rule="evenodd" clip-rule="evenodd" d="M193.741 120.609C203.435 120.737 211.34 128.76 211.243 138.367C211.144 148.231 202.997 156.053 193.037 155.852C183.284 155.653 175.701 147.72 175.873 137.899C176.041 128.167 183.988 120.48 193.741 120.609Z" fill="#FBB03B"/>
<path fill-rule="evenodd" clip-rule="evenodd" d="M288.541 356.947C290.394 358.602 291.898 359.943 293.402 361.286C292.249 362.02 290.848 363.578 289.997 363.318C288.11 362.746 286.498 361.262 284.774 360.148C285.794 359.283 286.814 358.415 288.541 356.947Z" fill="#FBB03B"/>
</svg>
