<svg width="477" height="454" viewBox="0 0 477 454" fill="none" xmlns="http://www.w3.org/2000/svg">
<path d="M346.14 18.2346C341.123 14.0546 338.519 6.97995 334.112 -4.74872e-05C333.767 17.5 324.784 27.4173 308.531 31.6799C324.927 32.8199 335.737 40.2053 340.54 56.6306C341.724 39.8786 350.921 30.8386 365.725 26.7533C358.713 23.8733 351.237 22.4826 346.14 18.2346Z" fill="white"/>
<path d="M221.89 68.7067C211.348 67.5053 205.402 61.4747 202.045 51.7973C201.016 62.3973 195.689 68.88 185.968 72.7213C196.545 73.5293 201.936 80.1173 205.913 88.9133C207.09 78.4733 212.997 72.7187 221.89 68.7067Z" fill="white"/>
<path d="M265.74 35.8851C261.167 32.2131 255.64 27.7704 251.302 24.2877C247.27 28.9797 242.62 34.3891 239.146 38.4237C243.763 42.0677 249.214 46.3664 253.556 49.7877C257.494 45.2944 262.064 40.0797 265.74 35.8851Z" fill="white"/>
<path d="M233.501 86.6091C223.747 86.4798 215.801 94.1664 215.633 103.898C215.461 113.72 223.043 121.653 232.797 121.852C242.757 122.053 250.903 114.23 251.002 104.366C251.099 94.7598 243.194 86.7371 233.501 86.6091ZM311.305 324.306C318.977 329.988 327.955 331.218 336.894 332.713C339.674 333.178 341.019 332.17 342.229 329.886C349.306 316.513 348.79 303.15 342.278 289.805C341.759 288.742 340.482 287.476 339.427 287.342C333.298 286.562 327.135 285.738 320.977 285.689C318.33 285.668 315.671 287.481 312.603 288.614C325.159 301.848 324.549 313.081 311.305 324.306V324.306ZM233.049 263.77C267.895 263.77 302.745 263.772 337.591 263.765C339.862 263.765 342.154 263.892 344.395 263.613C348.667 263.09 351.662 259.789 351.858 255.728C352.061 251.534 349.118 247.82 344.806 246.962C343.634 246.728 342.402 246.728 341.197 246.726C271.505 246.705 201.809 246.689 132.117 246.68C129.086 246.68 126.046 246.584 123.029 246.788C118.047 247.124 114.753 250.617 114.759 255.29C114.765 260.009 118.066 263.393 123.053 263.736C124.259 263.818 125.475 263.765 126.687 263.765C162.141 263.765 197.595 263.765 233.049 263.77V263.77ZM254.923 297.496C254.929 297.97 254.933 298.444 254.937 298.918C243.359 298.918 231.782 298.942 220.205 298.893C218.705 298.886 217.181 298.633 215.711 298.3C210.253 297.06 205.827 294.582 204.222 288.658C203.99 287.801 203.145 286.888 202.341 286.442C195.751 282.796 189.139 279.186 182.462 275.705C177.673 273.205 172.427 271.061 167.327 273.757C164.789 275.098 162.471 278.33 161.695 281.156C160.766 284.544 163.021 287.94 166.427 289.084C181.286 294.068 193.866 303.16 207.021 311.189C221.079 319.772 235.505 325.762 252.65 325.05C270.657 324.302 288.698 324.758 306.437 320.886C313.997 319.236 317.441 314.824 317.535 307.092C317.622 300.212 314.599 294.592 309.479 290.486C303.123 285.389 296.615 280.213 289.443 276.465C279.347 271.188 268.459 270.717 257.905 275.796C248.623 280.261 239.263 281.338 229.241 278.501C224.961 277.289 220.291 277.016 215.806 277.066C210.391 277.126 207.362 280.101 206.747 284.813C206.121 289.61 208.525 293.878 213.685 295.045C218.318 296.09 223.235 296.19 228.026 296.202C237.023 296.221 246.094 294.464 254.923 297.496V297.496ZM335.534 237.753C336.817 205.97 320.238 161.424 278.713 139.481C243.195 120.713 201.142 125.117 169.95 151.602C143.499 174.057 131.337 203.296 130.555 237.773H148.973C147.986 210.777 155.377 186.666 173.013 166.242C190.779 145.664 213.417 134.853 240.646 133.736C218.297 140.674 200.286 153.513 187.203 172.966C174.066 192.5 168.709 214.066 170.485 237.753H335.534Z" fill="white"/>
<path fill-rule="evenodd" clip-rule="evenodd" d="M278.713 139.257C276.148 137.901 273.545 136.793 270.917 135.679L275.205 126.828C278.214 127.789 280.884 127.808 281.177 124.923L280.8 123.876C280.8 123.876 280.521 123.104 278.892 121.949C281.516 122.612 283.69 122.339 283.953 119.749L283.576 118.695C283.576 118.695 283.24 117.737 281.094 116.375L282.042 114.192L289.844 115.621C317.936 120.271 317.454 95.6934 317.454 95.6934C317.49 82.0068 321.534 78.6028 321.534 78.6028C320.444 81.4454 325.064 86.7441 325.064 86.7441C324.516 78.3134 330.75 66.4868 330.75 66.4868C314.258 74.1121 312.966 91.7508 312.966 91.7521C312.657 95.9494 312.133 101.208 308.914 104.316C305.133 107.975 298.6 108.523 293.736 107.345C293.274 107.232 286.498 104.865 286.812 104.155C286.854 104.052 306.053 60.1361 306.053 60.1361C306.02 62.6028 311.837 66.1401 311.837 66.1401C309.896 63.0454 309.62 43.3721 309.62 43.3721C305.048 49.8388 289.964 57.8734 289.964 57.8734L297.902 57.9241L278.23 100.335C271.31 97.5668 264.229 91.7148 265.29 83.5614C266.236 76.3174 271.993 71.6308 275.688 65.8308C282.572 55.0374 277.262 42.6974 277.262 42.6974C274.308 54.4774 267.386 59.2561 267.386 59.2561C269.006 61.8334 275.57 59.0041 275.57 59.0041C274.826 62.6348 267.416 68.0068 267.416 68.0068C262.388 72.8254 257.066 77.8188 256.89 85.2561C256.733 91.9894 260.366 98.4161 264.765 103.299C265.217 103.801 273.814 111.355 274.058 110.867C274.056 110.869 273.266 112.456 273.006 112.985C272.02 112.689 270.974 112.393 269.802 112.101C269.802 112.101 265.84 113.584 268.92 117.115C268.92 117.115 269.768 117.677 271.06 118.431C269.862 118.053 268.526 117.675 267.022 117.299C267.022 117.299 263.064 118.779 266.141 122.309C266.141 122.309 266.797 122.744 267.832 123.364L263.24 132.901C231.472 122.424 196.714 128.644 169.95 151.369C143.5 173.825 131.337 202.64 130.556 237.307H148.973C147.986 210.64 155.377 186.433 173.013 166.009C190.78 145.429 213.417 134.737 240.646 133.619C218.296 140.557 200.286 153.232 187.204 172.685C174.066 192.219 168.709 213.307 170.485 237.307H335.534C336.817 206.64 320.238 161.2 278.713 139.257Z" fill="white"/>
<path fill-rule="evenodd" clip-rule="evenodd" d="M254.924 297.495C246.095 294.464 237.023 296.222 228.025 296.202C223.235 296.19 218.319 296.09 213.684 295.044C208.524 293.878 206.12 289.611 206.747 284.812C207.363 280.1 210.392 277.127 215.805 277.067C220.291 277.016 224.96 277.29 229.24 278.502C239.264 281.339 248.623 280.26 257.904 275.796C268.459 270.716 279.347 271.188 289.444 276.466C296.616 280.212 303.123 285.39 309.48 290.486C314.6 294.591 317.621 300.211 317.536 307.091C317.441 314.823 313.997 319.236 306.437 320.887C288.699 324.758 270.657 324.302 252.651 325.05C235.505 325.762 221.079 319.771 207.02 311.19C193.867 303.159 181.285 294.068 166.428 289.083C163.02 287.939 160.767 284.543 161.695 281.155C162.471 278.33 164.788 275.098 167.328 273.756C172.428 271.062 177.673 273.204 182.461 275.704C189.139 279.187 195.751 282.796 202.34 286.443C203.145 286.888 203.991 287.8 204.223 288.658C205.828 294.582 210.253 297.06 215.712 298.3C217.18 298.634 218.705 298.886 220.205 298.894C231.783 298.942 243.359 298.918 254.937 298.918C254.933 298.444 254.929 297.97 254.924 297.495Z" fill="white"/>
<path fill-rule="evenodd" clip-rule="evenodd" d="M233.049 263.767C197.596 263.765 162.141 263.765 126.688 263.765C125.476 263.765 124.26 263.818 123.053 263.737C118.066 263.394 114.765 260.01 114.76 255.291C114.753 250.618 118.048 247.125 123.028 246.789C126.046 246.583 129.086 246.681 132.117 246.681C201.809 246.689 271.505 246.705 341.197 246.727C342.402 246.729 343.633 246.729 344.805 246.962C349.118 247.819 352.061 251.534 351.857 255.729C351.662 259.79 348.668 263.09 344.396 263.614C342.154 263.893 339.861 263.765 337.592 263.765C302.744 263.771 267.896 263.77 233.049 263.767Z" fill="white"/>
<path fill-rule="evenodd" clip-rule="evenodd" d="M328.3 322.947C326.574 324.415 325.554 325.283 324.534 326.148C326.258 327.262 327.87 328.746 329.756 329.318C330.607 329.578 332.008 328.02 333.162 327.286C331.658 325.943 330.154 324.602 328.3 322.947ZM311.304 324.307C324.55 313.082 325.16 301.848 312.604 288.615C315.671 287.48 318.33 285.668 320.978 285.69C327.135 285.739 333.298 286.563 339.428 287.343C340.483 287.475 341.76 288.743 342.278 289.806C348.79 303.15 349.306 316.514 342.228 329.886C341.019 332.171 339.674 333.179 336.894 332.712C327.955 331.218 318.978 329.987 311.304 324.307Z" fill="white"/>
<path fill-rule="evenodd" clip-rule="evenodd" d="M233.501 86.6091C243.194 86.7371 251.099 94.7598 251.002 104.366C250.903 114.23 242.757 122.053 232.797 121.852C223.043 121.653 215.461 113.72 215.633 103.898C215.801 94.1665 223.747 86.4798 233.501 86.6091Z" fill="white"/>
<path fill-rule="evenodd" clip-rule="evenodd" d="M328.3 322.947C330.154 324.601 331.658 325.943 333.162 327.285C332.008 328.02 330.607 329.577 329.756 329.317C327.87 328.745 326.258 327.261 324.534 326.148C325.554 325.283 326.574 324.415 328.3 322.947Z" fill="white"/>
<path d="M34.924 359.912C34.8347 361.902 34.6787 363.961 34.4573 366.086C34.236 368.21 33.9507 370.202 33.596 372.061H30.8733L27.82 364.226H15.4027V380.494H23.504L26.424 375.381H28.5493C28.7707 377.55 28.8827 379.962 28.8827 382.617C28.8827 385.273 28.7707 387.753 28.5493 390.053H26.424L23.504 384.809H15.4027V402.072H28.3507L31.8693 393.64H34.5907C34.768 394.481 34.9453 395.433 35.1213 396.494C35.2987 397.556 35.4427 398.653 35.5547 399.78C35.664 400.909 35.7533 402.05 35.82 403.2C35.8867 404.352 35.9187 405.414 35.9187 406.386H0V403.864C0.752 403.465 1.59333 403.09 2.52267 402.736C3.452 402.382 4.42534 402.116 5.44534 401.94V364.36C4.55867 364.182 3.61867 363.928 2.62134 363.597C1.62667 363.265 0.752 362.877 0 362.434V359.912H34.924Z" fill="white"/>
<path d="M42.1597 359.912H63.937V362.434C63.0077 362.922 61.9783 363.33 60.849 363.662C59.721 363.994 58.625 364.226 57.5623 364.36V402.072H70.377L74.825 390.186H77.5477C77.7237 391.206 77.8903 392.4 78.0463 393.773C78.1997 395.145 78.321 396.584 78.4103 398.088C78.4997 399.593 78.565 401.076 78.609 402.537C78.653 403.996 78.653 405.281 78.609 406.386H42.1597V403.864C43.177 403.332 44.1397 402.913 45.0477 402.604C45.9543 402.293 46.8063 402.072 47.6037 401.94V364.36C45.4343 364.005 43.6197 363.364 42.1597 362.434V359.912Z" fill="white"/>
<path d="M122.961 402.47C125.749 402.47 127.939 401.64 129.534 399.98C131.127 398.321 131.923 396.118 131.923 393.374C131.923 391.692 131.658 390.309 131.127 389.224C130.597 388.14 129.865 387.276 128.934 386.634C128.006 385.994 126.898 385.552 125.615 385.306C124.331 385.064 122.937 384.942 121.433 384.942H117.914V402.005C118.534 402.138 119.186 402.249 119.873 402.337C120.558 402.426 121.589 402.47 122.961 402.47ZM120.039 380.626C120.791 380.626 121.543 380.593 122.297 380.526C123.047 380.46 123.758 380.384 124.422 380.294C126.147 379.586 127.542 378.492 128.603 377.008C129.666 375.525 130.198 373.832 130.198 371.929C130.198 369.14 129.466 367.093 128.006 365.786C126.545 364.482 124.663 363.829 122.362 363.829C121.387 363.829 120.546 363.85 119.839 363.894C119.131 363.94 118.489 364.005 117.914 364.094V380.626H120.039ZM102.909 406.388V403.864C103.75 403.378 104.646 402.957 105.599 402.604C106.549 402.249 107.467 402.028 108.354 401.94V364.36C107.467 364.182 106.539 363.928 105.565 363.597C104.591 363.265 103.706 362.877 102.909 362.434V359.912H113.599C115.281 359.912 116.874 359.845 118.378 359.713C119.882 359.58 121.609 359.513 123.557 359.513C125.682 359.513 127.741 359.668 129.731 359.978C131.723 360.288 133.494 360.84 135.045 361.637C136.594 362.434 137.833 363.553 138.763 364.99C139.691 366.429 140.155 368.276 140.155 370.534C140.155 371.95 139.901 373.268 139.393 374.485C138.882 375.702 138.174 376.776 137.267 377.705C136.361 378.634 135.298 379.409 134.081 380.029C132.863 380.649 131.546 381.092 130.13 381.357V381.621C131.546 381.8 132.974 382.132 134.414 382.617C135.851 383.106 137.146 383.813 138.297 384.742C139.447 385.672 140.387 386.833 141.119 388.228C141.849 389.622 142.214 391.273 142.214 393.174C142.214 395.565 141.683 397.622 140.621 399.349C139.558 401.076 138.131 402.493 136.338 403.598C134.546 404.706 132.497 405.513 130.198 406.022C127.895 406.53 125.505 406.785 123.026 406.785C122.097 406.785 121.078 406.762 119.973 406.72C118.866 406.674 117.758 406.629 116.654 406.586C115.546 406.542 114.471 406.497 113.433 406.453C112.391 406.409 111.518 406.388 110.81 406.388H102.909Z" fill="white"/>
<path d="M162.861 387.067H174.613L170.299 374.384L169.037 368.675H168.904L167.444 374.517L162.861 387.067ZM163.127 406.387H146.728V403.864C147.437 403.423 148.2 403.035 149.019 402.703C149.837 402.371 150.645 402.116 151.443 401.939L168.572 359.115H173.485L190.151 401.939C191.036 402.116 191.92 402.371 192.807 402.703C193.691 403.035 194.465 403.423 195.129 403.864V406.387H174.348V403.864C175.189 403.465 176.096 403.091 177.069 402.736C178.044 402.381 178.973 402.116 179.859 401.939L176.008 391.381H161.269L157.351 401.939C159.388 402.205 161.312 402.847 163.127 403.864V406.387Z" fill="white"/>
<path d="M229.721 359.912H246.186V362.5C245.345 363.164 244.416 363.749 243.398 364.259C242.378 364.767 241.426 365.153 240.542 365.419V407.184H234.898L211.462 373.324L208.806 368.211H208.606L209.205 373.523V401.209C210.089 401.431 211.074 401.796 212.158 402.304C213.244 402.813 214.161 403.332 214.914 403.864V406.387H198.516V403.864C199.312 403.333 200.185 402.837 201.138 402.373C202.088 401.909 203.073 401.521 204.092 401.213V365.02C203.205 364.667 202.321 364.269 201.437 363.827C200.55 363.384 199.753 362.921 199.046 362.435V359.912H213.388L232.442 387.532L235.497 393.241H235.762L235.429 387.544V365.416C234.368 365.063 233.338 364.632 232.344 364.124C231.346 363.616 230.472 363.076 229.721 362.5V359.912Z" fill="white"/>
<path d="M263.447 383.149C263.447 385.982 263.669 388.605 264.111 391.017C264.554 393.43 265.251 395.51 266.202 397.258C267.154 399.007 268.371 400.378 269.854 401.374C271.337 402.37 273.118 402.867 275.199 402.867C277.101 402.867 278.718 402.37 280.046 401.374C281.374 400.378 282.458 399.007 283.299 397.258C284.141 395.51 284.75 393.43 285.125 391.017C285.501 388.605 285.69 385.982 285.69 383.149C285.69 380.317 285.478 377.694 285.059 375.282C284.638 372.869 283.974 370.789 283.067 369.041C282.158 367.291 280.965 365.919 279.481 364.923C277.998 363.927 276.195 363.43 274.07 363.43C272.033 363.43 270.33 363.927 268.958 364.923C267.586 365.919 266.49 367.291 265.671 369.041C264.853 370.789 264.278 372.869 263.945 375.282C263.614 377.694 263.447 380.317 263.447 383.149ZM300.961 413.823C300.163 414.663 299.31 415.471 298.403 416.246C297.497 417.019 296.545 417.718 295.549 418.338C294.553 418.957 293.502 419.445 292.395 419.798C291.289 420.153 290.138 420.33 288.942 420.33C286.906 420.33 284.859 419.965 282.802 419.234C280.743 418.505 278.595 417.663 276.362 416.711C274.126 415.759 271.781 414.842 269.322 413.955C266.866 413.07 264.199 412.451 261.322 412.097L262.982 409.177C265.107 408.778 267.198 408.677 269.257 408.877C271.314 409.075 273.351 409.407 275.365 409.873C277.379 410.338 279.393 410.857 281.407 411.433C283.421 412.009 285.445 412.473 287.481 412.827C289.518 413.181 291.598 413.346 293.723 413.326C295.849 413.302 298.038 412.915 300.297 412.163L300.961 413.823ZM252.161 383.149C252.161 379.697 252.647 376.499 253.622 373.555C254.594 370.613 256.033 368.066 257.937 365.919C259.839 363.774 262.186 362.102 264.975 360.906C267.762 359.713 270.971 359.115 274.601 359.115C278.231 359.115 281.439 359.713 284.229 360.906C287.018 362.102 289.351 363.774 291.234 365.919C293.114 368.066 294.541 370.613 295.515 373.555C296.489 376.499 296.975 379.697 296.975 383.149C296.975 386.602 296.489 389.799 295.515 392.742C294.541 395.687 293.114 398.233 291.234 400.378C289.351 402.526 287.018 404.195 284.229 405.391C281.439 406.586 278.231 407.183 274.601 407.183C270.971 407.183 267.762 406.586 264.975 405.391C262.186 404.195 259.839 402.526 257.937 400.378C256.033 398.233 254.594 395.687 253.622 392.742C252.647 389.799 252.161 386.602 252.161 383.149Z" fill="white"/>
<path d="M302.156 359.912H322.605V362.434C321.145 363.364 319.461 364.005 317.56 364.36V389.921C317.56 392.09 317.801 393.905 318.289 395.366C318.776 396.826 319.484 398.01 320.413 398.918C321.344 399.826 322.461 400.478 323.768 400.877C325.072 401.274 326.544 401.474 328.182 401.474C329.642 401.474 330.981 401.265 332.198 400.842C333.416 400.424 334.478 399.748 335.386 398.818C336.293 397.888 336.989 396.672 337.477 395.166C337.962 393.661 338.208 391.804 338.208 389.589V364.692C337.189 364.47 336.137 364.161 335.054 363.762C333.968 363.364 333.072 362.922 332.364 362.434V359.912H348.83V362.434C348.033 363.009 347.148 363.474 346.176 363.829C345.2 364.182 344.249 364.47 343.32 364.692V389.656C343.32 395.322 341.826 399.626 338.838 402.569C335.85 405.513 331.634 406.985 326.189 406.985C320.258 406.985 315.677 405.657 312.448 403C309.216 400.345 307.6 396.096 307.6 390.253V364.36C306.714 364.226 305.785 363.994 304.812 363.662C303.838 363.33 302.953 362.922 302.156 362.434V359.912Z" fill="white"/>
<path d="M387.471 359.912C387.383 361.902 387.228 363.961 387.007 366.086C386.783 368.21 386.498 370.202 386.143 372.061H383.422L380.367 364.226H367.951V380.494H376.052L378.974 375.381H381.099C381.32 377.55 381.43 379.962 381.43 382.617C381.43 385.273 381.32 387.753 381.099 390.053H378.974L376.052 384.809H367.951V402.072H380.898L384.416 393.64H387.14C387.315 394.481 387.495 395.433 387.671 396.494C387.846 397.556 387.992 398.653 388.102 399.78C388.214 400.909 388.302 402.05 388.367 403.2C388.435 404.352 388.468 405.414 388.468 406.386H352.55V403.864C353.3 403.465 354.142 403.09 355.071 402.736C356 402.382 356.974 402.116 357.992 401.94V364.36C357.107 364.182 356.166 363.928 355.171 363.597C354.174 363.265 353.3 362.877 352.55 362.434V359.912H387.471Z" fill="white"/>
<path d="M426.908 406.387H404.07V403.863C404.954 403.511 405.962 403.144 407.091 402.768C408.218 402.394 409.358 402.116 410.51 401.939V364.227H402.808L398.558 375.58H395.836C395.659 374.695 395.482 373.567 395.306 372.194C395.127 370.823 394.974 369.406 394.84 367.944C394.708 366.484 394.598 365.035 394.508 363.596C394.419 362.158 394.376 360.93 394.376 359.912H436.603C436.603 360.972 436.558 362.212 436.47 363.63C436.38 365.046 436.27 366.484 436.138 367.944C436.004 369.406 435.85 370.811 435.672 372.16C435.495 373.512 435.319 374.65 435.142 375.58H432.42L428.17 364.227H420.468V401.939C421.619 402.16 422.759 402.426 423.887 402.736C425.016 403.046 426.023 403.422 426.908 403.863V406.387Z" fill="white"/>
<path d="M475.907 359.912C475.818 361.902 475.663 363.961 475.442 366.086C475.219 368.21 474.934 370.202 474.579 372.061H471.856L468.803 364.226H456.387V380.494H464.488L467.408 375.381H469.534C469.755 377.55 469.866 379.962 469.866 382.617C469.866 385.273 469.755 387.753 469.534 390.053H467.408L464.488 384.809H456.387V402.072H469.334L472.852 393.64H475.575C475.751 394.481 475.93 395.433 476.106 396.494C476.282 397.556 476.427 398.653 476.538 399.78C476.648 400.909 476.736 402.05 476.803 403.2C476.87 404.352 476.903 405.414 476.903 406.386H440.984V403.864C441.735 403.465 442.578 403.09 443.506 402.736C444.435 402.382 445.41 402.116 446.428 401.94V364.36C445.543 364.182 444.602 363.928 443.606 363.597C442.61 363.265 441.735 362.877 440.984 362.434V359.912H475.907Z" fill="white"/>
<path d="M106.802 427.421C106.132 427.421 105.488 427.429 104.87 427.441C104.25 427.453 103.76 427.499 103.4 427.575V451.007C103.528 451.034 103.76 451.054 104.096 451.066C104.431 451.079 104.791 451.091 105.179 451.105C105.564 451.117 105.932 451.123 106.28 451.123H107.035C108.814 451.123 110.322 450.789 111.559 450.118C112.796 449.449 113.807 448.553 114.594 447.431C115.38 446.31 115.952 445.014 116.315 443.546C116.675 442.075 116.856 440.529 116.856 438.905C116.856 437.642 116.682 436.334 116.332 434.981C115.987 433.627 115.419 432.39 114.632 431.269C113.846 430.147 112.81 429.226 111.52 428.503C110.231 427.782 108.659 427.421 106.802 427.421ZM96.7496 452.786V451.666C97.651 451.253 98.7083 450.945 99.9203 450.737V427.807C99.327 427.679 98.7603 427.531 98.219 427.363C97.6763 427.195 97.187 427.022 96.7496 426.841V425.721H100.692C101.131 425.721 101.647 425.707 102.239 425.681C102.832 425.657 103.444 425.623 104.076 425.585C104.708 425.546 105.315 425.506 105.894 425.469C106.474 425.43 106.958 425.41 107.343 425.41C111.726 425.41 115.096 426.583 117.455 428.93C119.815 431.275 120.994 434.601 120.994 438.905C120.994 440.942 120.703 442.83 120.123 444.57C119.544 446.31 118.66 447.811 117.474 449.074C116.288 450.337 114.787 451.331 112.97 452.053C111.154 452.774 109.007 453.134 106.532 453.134C106.146 453.134 105.707 453.115 105.218 453.077C104.727 453.038 104.212 452.999 103.671 452.961C103.13 452.922 102.58 452.883 102.027 452.845C101.472 452.806 100.95 452.786 100.46 452.786H96.7496Z" fill="white"/>
<path d="M143.651 425.72C143.624 426.751 143.58 427.79 143.515 428.832C143.452 429.876 143.355 430.927 143.227 431.984H142.221L140.635 427.731H132.205V437.976H138.509L140.016 435.116H140.984C141.137 437.668 141.137 440.272 140.984 442.927H140.016L138.509 439.988H132.205V450.776H141.099L142.995 446.136H143.96C144.14 447.219 144.271 448.314 144.347 449.422C144.424 450.531 144.437 451.652 144.387 452.787H125.323V451.666C126.227 451.252 127.283 450.944 128.495 450.738V427.807C127.979 427.706 127.451 427.571 126.908 427.403C126.367 427.235 125.839 427.048 125.323 426.842V425.72H143.651Z" fill="white"/>
<path d="M159.619 425.72H170.214V426.842C169.595 427.074 168.977 427.274 168.359 427.44C167.739 427.608 167.121 427.731 166.502 427.807V450.776H175.395L177.677 444.551H178.682C178.759 445.091 178.83 445.718 178.895 446.426C178.959 447.136 179.01 447.87 179.049 448.631C179.089 449.391 179.107 450.132 179.107 450.854C179.107 451.576 179.094 452.22 179.07 452.787H159.619V451.666C160.239 451.382 160.805 451.176 161.321 451.047C161.835 450.918 162.326 450.815 162.791 450.738V427.807C162.198 427.706 161.63 427.571 161.089 427.403C160.547 427.235 160.057 427.048 159.619 426.842V425.72Z" fill="white"/>
<path d="M187.111 439.253C187.111 440.904 187.286 442.457 187.635 443.913C187.981 445.369 188.505 446.638 189.199 447.722C189.895 448.804 190.773 449.662 191.83 450.293C192.886 450.925 194.137 451.24 195.581 451.24C196.895 451.24 198.041 450.925 199.021 450.293C200.001 449.662 200.806 448.804 201.437 447.722C202.07 446.638 202.546 445.369 202.869 443.913C203.191 442.457 203.351 440.904 203.351 439.253C203.351 437.605 203.185 436.052 202.849 434.594C202.514 433.138 201.999 431.868 201.303 430.785C200.606 429.702 199.73 428.846 198.674 428.214C197.617 427.582 196.366 427.268 194.922 427.268C193.505 427.268 192.299 427.582 191.306 428.214C190.314 428.846 189.51 429.702 188.89 430.785C188.271 431.868 187.819 433.138 187.537 434.594C187.253 436.052 187.111 437.605 187.111 439.253ZM182.974 439.253C182.974 437.242 183.251 435.381 183.806 433.666C184.361 431.952 185.158 430.47 186.202 429.22C187.247 427.969 188.529 426.997 190.051 426.3C191.571 425.605 193.299 425.256 195.231 425.256C197.166 425.256 198.893 425.605 200.414 426.3C201.934 426.997 203.215 427.969 204.259 429.22C205.305 430.47 206.103 431.952 206.658 433.666C207.211 435.381 207.489 437.242 207.489 439.253C207.489 441.265 207.211 443.126 206.658 444.84C206.103 446.556 205.305 448.037 204.259 449.288C203.215 450.538 201.934 451.51 200.414 452.208C198.893 452.902 197.166 453.25 195.231 453.25C193.299 453.25 191.571 452.902 190.051 452.208C188.529 451.51 187.247 450.538 186.202 449.288C185.158 448.037 184.361 446.556 183.806 444.84C183.251 443.126 182.974 441.265 182.974 439.253" fill="white"/>
<path d="M216.536 450.119C216.845 450.428 217.244 450.693 217.735 450.912C218.225 451.131 218.959 451.24 219.94 451.24C220.764 451.24 221.537 451.131 222.26 450.912C222.981 450.693 223.607 450.369 224.135 449.944C224.663 449.52 225.081 449.004 225.392 448.399C225.7 447.793 225.855 447.103 225.855 446.329C225.855 445.299 225.539 444.435 224.908 443.739C224.276 443.043 223.489 442.424 222.549 441.883C221.608 441.341 220.583 440.813 219.476 440.297C218.367 439.781 217.341 439.169 216.4 438.461C215.46 437.752 214.675 436.901 214.043 435.909C213.411 434.917 213.096 433.672 213.096 432.177C213.096 431.095 213.288 430.128 213.675 429.277C214.063 428.427 214.609 427.705 215.319 427.112C216.027 426.52 216.872 426.061 217.851 425.74C218.831 425.417 219.927 425.256 221.137 425.256C222.711 425.256 224.148 425.379 225.451 425.624C226.751 425.869 227.776 426.171 228.523 426.532C228.523 426.971 228.491 427.48 228.427 428.059C228.361 428.64 228.285 429.239 228.195 429.857C228.104 430.476 228.008 431.076 227.904 431.655C227.801 432.236 227.697 432.745 227.596 433.183H226.591L225.044 427.885C224.575 427.68 223.983 427.525 223.268 427.421C222.552 427.319 221.791 427.267 220.985 427.267C219.659 427.267 218.591 427.635 217.785 428.369C216.979 429.103 216.575 430.128 216.575 431.443C216.575 432.5 216.893 433.389 217.528 434.111C218.164 434.832 218.96 435.477 219.921 436.044C220.88 436.611 221.911 437.159 223.012 437.688C224.116 438.216 225.145 438.828 226.105 439.524C227.064 440.22 227.861 441.045 228.497 441.999C229.133 442.952 229.452 444.139 229.452 445.556C229.452 446.716 229.239 447.773 228.813 448.727C228.388 449.681 227.776 450.492 226.976 451.163C226.176 451.833 225.197 452.349 224.039 452.709C222.877 453.071 221.564 453.251 220.093 453.251C218.469 453.251 217.012 453.057 215.725 452.671C214.435 452.284 213.52 451.872 212.979 451.433C213.005 450.995 213.049 450.467 213.115 449.848C213.179 449.229 213.256 448.591 213.345 447.933C213.437 447.276 213.533 446.639 213.636 446.02C213.739 445.401 213.843 444.873 213.947 444.435H214.952L216.536 450.119Z" fill="white"/>
<path d="M254.429 427.421C253.759 427.421 253.115 427.429 252.497 427.441C251.877 427.453 251.388 427.499 251.027 427.575V451.007C251.156 451.034 251.388 451.054 251.724 451.066C252.057 451.079 252.419 451.091 252.805 451.105C253.192 451.117 253.56 451.123 253.907 451.123H254.661C256.44 451.123 257.948 450.789 259.185 450.118C260.423 449.449 261.435 448.553 262.221 447.431C263.008 446.31 263.58 445.014 263.943 443.546C264.301 442.075 264.483 440.529 264.483 438.905C264.483 437.642 264.309 436.334 263.96 434.981C263.613 433.627 263.045 432.39 262.26 431.269C261.473 430.147 260.436 429.226 259.147 428.503C257.857 427.782 256.287 427.421 254.429 427.421ZM244.376 452.786V451.666C245.279 451.253 246.336 450.945 247.547 450.737V427.807C246.953 427.679 246.388 427.531 245.847 427.363C245.304 427.195 244.815 427.022 244.376 426.841V425.721H248.32C248.757 425.721 249.273 425.707 249.867 425.681C250.459 425.657 251.071 425.623 251.703 425.585C252.336 425.546 252.941 425.506 253.52 425.469C254.101 425.43 254.584 425.41 254.971 425.41C259.353 425.41 262.724 426.583 265.083 428.93C267.441 431.275 268.62 434.601 268.62 438.905C268.62 440.942 268.331 442.83 267.749 444.57C267.171 446.31 266.287 447.811 265.101 449.074C263.916 450.337 262.413 451.331 260.596 452.053C258.78 452.774 256.633 453.134 254.159 453.134C253.773 453.134 253.333 453.115 252.844 453.077C252.353 453.038 251.839 452.999 251.297 452.961C250.756 452.922 250.208 452.883 249.653 452.845C249.099 452.806 248.577 452.786 248.088 452.786H244.376Z" fill="white"/>
<path d="M283.583 452.787H273.684V451.665C274.69 451.201 275.722 450.892 276.778 450.737V427.808C276.263 427.705 275.747 427.571 275.231 427.403C274.716 427.235 274.2 427.048 273.684 426.841V425.72H283.583V426.841C283.119 427.048 282.616 427.235 282.075 427.403C281.534 427.571 281.004 427.705 280.491 427.808V450.737C281.031 450.84 281.572 450.969 282.114 451.124C282.656 451.279 283.146 451.46 283.583 451.665V452.787Z" fill="white"/>
<path d="M292.825 439.253C292.825 440.904 292.998 442.457 293.346 443.913C293.694 445.369 294.216 446.638 294.912 447.722C295.609 448.804 296.484 449.662 297.541 450.293C298.598 450.925 299.849 451.24 301.293 451.24C302.606 451.24 303.753 450.925 304.734 450.293C305.713 449.662 306.518 448.804 307.15 447.722C307.781 446.638 308.257 445.369 308.58 443.913C308.904 442.457 309.065 440.904 309.065 439.253C309.065 437.605 308.896 436.052 308.562 434.594C308.226 433.138 307.71 431.868 307.016 430.785C306.32 429.702 305.442 428.846 304.385 428.214C303.328 427.582 302.077 427.268 300.634 427.268C299.217 427.268 298.013 427.582 297.02 428.214C296.026 428.846 295.221 429.702 294.604 430.785C293.984 431.868 293.533 433.138 293.249 434.594C292.965 436.052 292.825 437.605 292.825 439.253ZM288.686 439.253C288.686 437.242 288.964 435.381 289.518 433.666C290.073 431.952 290.872 430.47 291.916 429.22C292.961 427.969 294.241 426.997 295.762 426.3C297.284 425.605 299.01 425.256 300.945 425.256C302.877 425.256 304.604 425.605 306.126 426.3C307.645 426.997 308.929 427.969 309.973 429.22C311.018 430.47 311.814 431.952 312.369 433.666C312.924 435.381 313.201 437.242 313.201 439.253C313.201 441.265 312.924 443.126 312.369 444.84C311.814 446.556 311.018 448.037 309.973 449.288C308.929 450.538 307.645 451.51 306.126 452.208C304.604 452.902 302.877 453.25 300.945 453.25C299.01 453.25 297.284 452.902 295.762 452.208C294.241 451.51 292.961 450.538 291.916 449.288C290.872 448.037 290.073 446.556 289.518 444.84C288.964 443.126 288.686 441.265 288.686 439.253" fill="white"/>
<path d="M322.249 450.119C322.559 450.428 322.957 450.693 323.448 450.912C323.939 451.131 324.672 451.24 325.653 451.24C326.477 451.24 327.251 451.131 327.973 450.912C328.695 450.693 329.32 450.369 329.848 449.944C330.376 449.52 330.795 449.004 331.105 448.399C331.413 447.793 331.568 447.103 331.568 446.329C331.568 445.299 331.252 444.435 330.621 443.739C329.989 443.043 329.203 442.424 328.263 441.883C327.321 441.341 326.296 440.813 325.189 440.297C324.08 439.781 323.055 439.169 322.113 438.461C321.173 437.752 320.388 436.901 319.756 435.909C319.124 434.917 318.809 433.672 318.809 432.177C318.809 431.095 319.001 430.128 319.388 429.277C319.776 428.427 320.323 427.705 321.032 427.112C321.74 426.52 322.585 426.061 323.564 425.74C324.544 425.417 325.64 425.256 326.851 425.256C328.424 425.256 329.861 425.379 331.164 425.624C332.464 425.869 333.489 426.171 334.236 426.532C334.236 426.971 334.204 427.48 334.14 428.059C334.075 428.64 333.999 429.239 333.908 429.857C333.817 430.476 333.721 431.076 333.617 431.655C333.515 432.236 333.411 432.745 333.309 433.183H332.304L330.757 427.885C330.288 427.68 329.696 427.525 328.981 427.421C328.265 427.319 327.504 427.267 326.699 427.267C325.372 427.267 324.304 427.635 323.499 428.369C322.692 429.103 322.288 430.128 322.288 431.443C322.288 432.5 322.607 433.389 323.241 434.111C323.877 434.832 324.673 435.477 325.635 436.044C326.593 436.611 327.624 437.159 328.725 437.688C329.829 438.216 330.859 438.828 331.819 439.524C332.777 440.22 333.575 441.045 334.211 441.999C334.847 442.952 335.165 444.139 335.165 445.556C335.165 446.716 334.952 447.773 334.527 448.727C334.101 449.681 333.489 450.492 332.689 451.163C331.889 451.833 330.911 452.349 329.752 452.709C328.591 453.071 327.277 453.251 325.807 453.251C324.183 453.251 322.725 453.057 321.439 452.671C320.148 452.284 319.233 451.872 318.692 451.433C318.719 450.995 318.763 450.467 318.828 449.848C318.892 449.229 318.969 448.591 319.059 447.933C319.151 447.276 319.247 446.639 319.349 446.02C319.452 445.401 319.556 444.873 319.66 444.435H320.665L322.249 450.119Z" fill="white"/>
<path d="M357.822 425.72C357.796 426.751 357.752 427.79 357.686 428.832C357.624 429.876 357.526 430.927 357.398 431.984H356.393L354.806 427.731H346.377V437.976H352.681L354.188 435.116H355.156C355.309 437.668 355.309 440.272 355.156 442.927H354.188L352.681 439.988H346.377V450.776H355.27L357.166 446.136H358.132C358.312 447.219 358.442 448.314 358.518 449.422C358.596 450.531 358.609 451.652 358.558 452.787H339.494V451.666C340.398 451.252 341.454 450.944 342.666 450.738V427.807C342.15 427.706 341.622 427.571 341.08 427.403C340.538 427.235 340.01 427.048 339.494 426.842V425.72H357.822Z" fill="white"/>
<path d="M367.876 450.119C368.184 450.428 368.584 450.693 369.075 450.912C369.565 451.131 370.299 451.24 371.279 451.24C372.104 451.24 372.877 451.131 373.599 450.912C374.32 450.693 374.945 450.369 375.473 449.944C376.003 449.52 376.421 449.004 376.732 448.399C377.04 447.793 377.195 447.103 377.195 446.329C377.195 445.299 376.879 444.435 376.247 443.739C375.615 443.043 374.829 442.424 373.888 441.883C372.948 441.341 371.923 440.813 370.815 440.297C369.705 439.781 368.681 439.169 367.74 438.461C366.799 437.752 366.013 436.901 365.383 435.909C364.749 434.917 364.435 433.672 364.435 432.177C364.435 431.095 364.627 430.128 365.015 429.277C365.401 428.427 365.948 427.705 366.659 427.112C367.367 426.52 368.211 426.061 369.189 425.74C370.169 425.417 371.265 425.256 372.476 425.256C374.049 425.256 375.487 425.379 376.789 425.624C378.091 425.869 379.115 426.171 379.861 426.532C379.861 426.971 379.831 427.48 379.765 428.059C379.7 428.64 379.625 429.239 379.533 429.857C379.443 430.476 379.347 431.076 379.244 431.655C379.14 432.236 379.036 432.745 378.935 433.183H377.929L376.383 427.885C375.913 427.68 375.323 427.525 374.607 427.421C373.892 427.319 373.129 427.267 372.325 427.267C370.997 427.267 369.931 427.635 369.125 428.369C368.317 429.103 367.913 430.128 367.913 431.443C367.913 432.5 368.232 433.389 368.867 434.111C369.503 434.832 370.3 435.477 371.26 436.044C372.219 436.611 373.249 437.159 374.352 437.688C375.456 438.216 376.485 438.828 377.445 439.524C378.404 440.22 379.203 441.045 379.839 441.999C380.473 442.952 380.792 444.139 380.792 445.556C380.792 446.716 380.577 447.773 380.153 448.727C379.727 449.681 379.115 450.492 378.315 451.163C377.516 451.833 376.537 452.349 375.377 452.709C374.217 453.071 372.904 453.251 371.433 453.251C369.809 453.251 368.352 453.057 367.065 452.671C365.775 452.284 364.859 451.872 364.319 451.433C364.344 450.995 364.389 450.467 364.455 449.848C364.517 449.229 364.596 448.591 364.685 447.933C364.776 447.276 364.872 446.639 364.976 446.02C365.077 445.401 365.181 444.873 365.287 444.435H366.292L367.876 450.119Z" fill="white"/>
</svg>
