<svg width="251" height="333" viewBox="0 0 251 333" fill="none" xmlns="http://www.w3.org/2000/svg">
<path d="M231.381 18.2346C226.363 14.0546 223.759 6.97995 219.353 -4.74872e-05C219.007 17.5 210.025 27.4173 193.771 31.6799C210.167 32.8199 220.978 40.2053 225.781 56.6306C226.965 39.8786 236.162 30.8386 250.966 26.7533C243.954 23.8733 236.478 22.4826 231.381 18.2346Z" fill="#A3DFE5"/>
<path d="M107.131 68.7067C96.588 67.5053 90.6427 61.4747 87.2853 51.7973C86.256 62.3973 80.9293 68.88 71.208 72.7213C81.7853 73.5293 87.176 80.1173 91.1533 88.9133C92.3307 78.4733 98.2373 72.7187 107.131 68.7067Z" fill="#A3DFE5"/>
<path d="M150.981 35.8852C146.408 32.2132 140.881 27.7705 136.542 24.2878C132.51 28.9798 127.861 34.3892 124.386 38.4238C129.004 42.0678 134.454 46.3665 138.797 49.7878C142.734 45.2945 147.305 40.0798 150.981 35.8852Z" fill="#A3DFE5"/>
<path d="M118.741 86.6091C108.988 86.4798 101.041 94.1665 100.873 103.898C100.701 113.72 108.284 121.653 118.037 121.852C127.997 122.053 136.144 114.23 136.243 104.366C136.34 94.7598 128.435 86.7371 118.741 86.6091ZM196.545 324.306C204.217 329.988 213.196 331.218 222.135 332.713C224.915 333.178 226.26 332.17 227.469 329.886C234.547 316.513 234.031 303.15 227.519 289.805C227 288.742 225.723 287.476 224.668 287.342C218.539 286.562 212.376 285.738 206.217 285.689C203.571 285.668 200.912 287.481 197.844 288.614C210.4 301.848 209.789 313.081 196.545 324.306V324.306ZM118.289 263.77C153.136 263.77 187.985 263.772 222.832 263.765C225.103 263.765 227.395 263.892 229.636 263.613C233.908 263.09 236.903 259.789 237.099 255.728C237.301 251.534 234.359 247.82 230.047 246.962C228.875 246.728 227.643 246.728 226.437 246.726C156.745 246.705 87.0493 246.689 17.3573 246.68C14.3267 246.68 11.2867 246.584 8.26935 246.788C3.28801 247.124 -0.00665657 250.617 1.00986e-05 255.29C0.00534343 260.009 3.30668 263.393 8.29335 263.736C9.50001 263.818 10.716 263.765 11.928 263.765C47.3813 263.765 82.836 263.765 118.289 263.77V263.77ZM140.164 297.496C140.169 297.97 140.173 298.444 140.177 298.918C128.6 298.918 117.023 298.942 105.445 298.893C103.945 298.886 102.421 298.633 100.952 298.3C95.4933 297.06 91.068 294.582 89.4627 288.658C89.2307 287.801 88.3853 286.888 87.5813 286.442C80.992 282.796 74.38 279.186 67.7027 275.705C62.9133 273.205 57.668 271.061 52.568 273.757C50.0293 275.098 47.712 278.33 46.936 281.156C46.0067 284.544 48.2613 287.94 51.668 289.084C66.5267 294.068 79.1067 303.16 92.2613 311.189C106.32 319.772 120.745 325.762 137.891 325.05C155.897 324.302 173.939 324.758 191.677 320.886C199.237 319.236 202.681 314.824 202.776 307.092C202.863 300.212 199.84 294.592 194.72 290.486C188.364 285.389 181.856 280.213 174.684 276.465C164.588 271.188 153.7 270.717 143.145 275.796C133.864 280.261 124.504 281.338 114.481 278.501C110.201 277.289 105.532 277.016 101.047 277.066C95.632 277.126 92.6027 280.101 91.988 284.813C91.3613 289.61 93.7653 293.878 98.9253 295.045C103.559 296.09 108.476 296.19 113.267 296.202C122.264 296.221 131.335 294.464 140.164 297.496V297.496ZM220.775 237.753C222.057 205.97 205.479 161.424 163.953 139.481C128.436 120.713 86.3827 125.117 55.1907 151.602C28.74 174.057 16.5773 203.296 15.796 237.773H34.2133C33.2267 210.777 40.6173 186.666 58.2533 166.242C76.02 145.664 98.6573 134.853 125.887 133.736C103.537 140.674 85.5267 153.513 72.444 172.966C59.3067 192.5 53.9493 214.066 55.7253 237.753H220.775Z" fill="#FBB03B"/>
<path fill-rule="evenodd" clip-rule="evenodd" d="M163.954 139.258C161.388 137.902 158.786 136.794 156.158 135.679L160.446 126.828C163.455 127.79 166.124 127.808 166.418 124.923L166.04 123.876C166.04 123.876 165.762 123.104 164.132 121.95C166.756 122.612 168.931 122.339 169.194 119.75L168.816 118.695C168.816 118.695 168.48 117.738 166.335 116.375L167.283 114.192L175.084 115.622C203.176 120.271 202.695 95.6936 202.695 95.6936C202.731 82.0069 206.775 78.603 206.775 78.603C205.684 81.4456 210.304 86.7443 210.304 86.7443C209.756 78.3136 215.991 66.4869 215.991 66.4869C199.499 74.1123 198.207 91.751 198.207 91.7523C197.898 95.9496 197.374 101.208 194.155 104.316C190.374 107.975 183.84 108.523 178.976 107.346C178.515 107.232 171.739 104.866 172.052 104.155C172.095 104.052 191.294 60.1363 191.294 60.1363C191.26 62.6029 197.078 66.1403 197.078 66.1403C195.136 63.0456 194.86 43.3723 194.86 43.3723C190.288 49.839 175.204 57.8736 175.204 57.8736L183.143 57.9243L163.471 100.335C156.551 97.5669 149.47 91.7149 150.531 83.5616C151.476 76.3176 157.234 71.631 160.928 65.831C167.812 55.0376 162.503 42.6976 162.503 42.6976C159.548 54.4776 152.627 59.2563 152.627 59.2563C154.247 61.8336 160.811 59.0043 160.811 59.0043C160.067 62.6349 152.656 68.0069 152.656 68.0069C147.628 72.8256 142.307 77.819 142.131 85.2563C141.974 91.9896 145.607 98.4163 150.006 103.299C150.458 103.802 159.055 111.355 159.299 110.867C159.296 110.87 158.507 112.456 158.247 112.986C157.26 112.69 156.215 112.394 155.043 112.102C155.043 112.102 151.08 113.584 154.16 117.115C154.16 117.115 155.008 117.678 156.3 118.431C155.103 118.054 153.767 117.675 152.263 117.299C152.263 117.299 148.304 118.779 151.382 122.31C151.382 122.31 152.038 122.744 153.072 123.364L148.48 132.902C116.712 122.424 81.9549 128.644 55.1909 151.37C28.7403 173.826 16.5776 202.64 15.7963 237.307H34.2136C33.2269 210.64 40.6176 186.434 58.2536 166.01C76.0203 145.43 98.6576 134.738 125.887 133.619C103.536 140.558 85.5269 153.232 72.4443 172.686C59.3069 192.219 53.9496 213.307 55.7256 237.307H220.775C222.058 206.64 205.479 161.2 163.954 139.258Z" fill="#FBB03B"/>
<path fill-rule="evenodd" clip-rule="evenodd" d="M140.164 297.495C131.335 294.464 122.263 296.222 113.266 296.202C108.475 296.19 103.559 296.09 98.9245 295.044C93.7645 293.878 91.3605 289.611 91.9871 284.812C92.6031 280.1 95.6325 277.127 101.046 277.067C105.531 277.016 110.2 277.29 114.48 278.502C124.504 281.339 133.863 280.26 143.144 275.796C153.699 270.716 164.587 271.188 174.684 276.466C181.856 280.212 188.363 285.39 194.72 290.486C199.84 294.591 202.862 300.211 202.776 307.091C202.682 314.823 199.238 319.236 191.678 320.887C173.939 324.758 155.898 324.302 137.891 325.05C120.746 325.762 106.319 319.771 92.2605 311.19C79.1071 303.159 66.5258 294.068 51.6685 289.083C48.2605 287.939 46.0071 284.543 46.9351 281.155C47.7111 278.33 50.0285 275.098 52.5685 273.756C57.6685 271.062 62.9138 273.204 67.7018 275.704C74.3791 279.187 80.9911 282.796 87.5805 286.443C88.3858 286.888 89.2311 287.8 89.4631 288.658C91.0685 294.582 95.4938 297.06 100.952 298.3C102.42 298.634 103.946 298.886 105.446 298.894C117.023 298.942 128.599 298.918 140.178 298.918C140.174 298.444 140.17 297.97 140.164 297.495Z" fill="#A3DFE5"/>
<path fill-rule="evenodd" clip-rule="evenodd" d="M118.29 263.767C82.8363 263.765 47.3816 263.765 11.9283 263.765C10.7163 263.765 9.50026 263.818 8.29359 263.737C3.30692 263.394 0.00558757 260.01 0.000254239 255.291C-0.00641243 250.618 3.28826 247.125 8.26826 246.789C11.2869 246.583 14.3269 246.681 17.3576 246.681C87.0496 246.689 156.746 246.705 226.438 246.727C227.643 246.729 228.874 246.729 230.046 246.962C234.359 247.819 237.302 251.534 237.098 255.729C236.903 259.79 233.908 263.09 229.636 263.614C227.395 263.893 225.102 263.765 222.832 263.765C187.984 263.771 153.136 263.77 118.29 263.767Z" fill="#FBB03B"/>
<path fill-rule="evenodd" clip-rule="evenodd" d="M213.541 322.947C211.814 324.415 210.794 325.283 209.774 326.148C211.498 327.262 213.11 328.746 214.997 329.318C215.847 329.578 217.249 328.02 218.402 327.286C216.898 325.943 215.394 324.602 213.541 322.947ZM196.545 324.307C209.79 313.082 210.401 301.848 197.845 288.615C200.911 287.48 203.57 285.668 206.218 285.69C212.375 285.739 218.538 286.563 224.669 287.343C225.723 287.475 227.001 288.743 227.518 289.806C234.03 303.15 234.546 316.514 227.469 329.886C226.259 332.171 224.914 333.179 222.134 332.712C213.195 331.218 204.218 329.987 196.545 324.307Z" fill="#A3DFE5"/>
<path fill-rule="evenodd" clip-rule="evenodd" d="M118.741 86.6092C128.435 86.7372 136.34 94.7599 136.243 104.367C136.144 114.231 127.997 122.053 118.037 121.852C108.284 121.653 100.701 113.72 100.873 103.899C101.041 94.1666 108.988 86.4799 118.741 86.6092Z" fill="#FBB03B"/>
<path fill-rule="evenodd" clip-rule="evenodd" d="M213.541 322.947C215.394 324.602 216.898 325.943 218.402 327.286C217.249 328.02 215.848 329.578 214.997 329.318C213.11 328.746 211.498 327.262 209.774 326.148C210.794 325.283 211.814 324.415 213.541 322.947Z" fill="#FBB03B"/>
</svg>
